<svg width="153" height="71" viewBox="0 0 153 71" fill="none" xmlns="http://www.w3.org/2000/svg">
<g filter="url(#filter0_d_143_169)">
<path d="M21.1486 59.9486C20.9425 60.0038 20.7647 60.0101 20.6152 59.9673C20.4726 59.9503 20.3866 59.8353 20.3571 59.6223C20.3364 59.5451 20.344 59.4188 20.3799 59.2435C20.4157 59.0683 20.4362 58.9386 20.4412 58.8544C20.4734 58.4593 20.4927 58.0676 20.4991 57.6794C20.4986 57.2654 20.505 56.8772 20.5183 56.5147C20.4993 55.0014 20.458 53.5079 20.3944 52.0341C20.3239 50.5346 20.189 49.0523 19.9897 47.5873C19.9446 47.2129 19.8728 46.7904 19.7744 46.3199C19.669 45.8236 19.5438 45.305 19.3989 44.7641C19.0676 43.5277 18.5868 42.2485 17.9565 40.9266C17.3263 39.6047 16.5203 38.6059 15.5386 37.9303L12.6022 38.7171C12.2159 38.8206 11.6818 38.9913 11.0002 39.2292C10.3443 39.4602 9.67986 39.7624 9.00695 40.136C8.3598 40.5026 7.85961 40.9542 7.5064 41.4905C7.15318 42.0269 7.09551 42.6359 7.33338 43.3176C7.41435 43.5167 7.56754 43.7793 7.79296 44.1055C8.01147 44.4058 8.15684 44.5877 8.22906 44.6512L7.88688 45.0742C7.65641 44.8322 7.37695 44.562 7.0485 44.2635C6.71315 43.9393 6.40701 43.621 6.13008 43.3087C5.85315 42.9964 5.67765 42.7535 5.60357 42.5801C5.5088 42.3295 5.43195 41.9911 5.37304 41.5652C5.31413 41.1393 5.42356 40.7235 5.70136 40.3177C5.998 39.8794 6.46738 39.5189 7.10948 39.2364C7.77734 38.9471 8.47188 38.7057 9.1931 38.5125C9.88857 38.3261 10.5652 38.1725 11.2229 38.0514C11.8807 37.9304 12.4156 37.8147 12.8278 37.7042C12.8278 37.7042 13.124 37.6249 13.7164 37.4661C14.3088 37.3074 15.0558 37.1072 15.9574 36.8657C16.8777 36.5914 17.8531 36.3163 18.8834 36.0402C19.9137 35.7641 20.8539 35.5122 21.7039 35.2845L21.1617 36.5064C20.389 36.7135 19.6162 36.9205 18.8435 37.1276C18.0896 37.302 17.3263 37.4927 16.5536 37.6998C17.5228 38.0198 18.3179 38.566 18.9389 39.3382C19.5857 40.1036 20.1012 40.9455 20.4853 41.8641C20.8695 42.7826 21.172 43.654 21.3929 44.4782C21.4826 44.8131 21.556 45.1385 21.613 45.4545C21.6959 45.7636 21.7683 46.0341 21.8304 46.2659C22.1033 47.4903 22.3258 48.9905 22.498 50.7665C22.6702 52.5424 22.741 54.2489 22.7103 55.886C23.2428 54.4733 23.8197 52.8142 24.441 50.9084C25.0811 48.97 25.8293 46.9199 26.6856 44.7579C27.5607 42.5633 28.569 40.402 29.7105 38.2741C30.175 37.4318 30.6747 36.5663 31.2096 35.6776C31.7445 34.7889 32.3619 34.0023 33.0619 33.3178C33.762 32.6333 34.5885 32.1633 35.5415 31.908C36.3658 31.6871 37.0314 31.6468 37.5383 31.7871L37.4203 32.2742C37.3104 32.276 37.2039 32.2908 37.1009 32.3184C37.0167 32.3133 36.9102 32.328 36.7814 32.3626C36.0602 32.5558 35.3461 32.9818 34.6392 33.6405C33.958 34.2924 33.4572 34.8959 33.1366 35.4511C32.5521 36.4636 32.1893 37.5823 32.0482 38.8072C31.9001 40.0064 31.8888 41.2518 32.014 42.5434C32.1581 43.8023 32.3477 45.0766 32.5828 46.3664C32.8111 47.6304 33.0221 48.83 33.2158 49.9652C33.4353 51.0935 33.5396 52.1008 33.5287 52.9872C34.1844 51.2103 35.009 49.0844 36.0023 46.6097C37.0214 44.128 38.2387 41.5104 39.6543 38.7569C41.063 35.9776 42.6959 33.2624 44.553 30.6114C44.932 30.0682 45.4388 29.4354 46.0735 28.7132C46.734 27.9841 47.4538 27.3219 48.233 26.7266C49.031 26.0987 49.8292 25.6778 50.6277 25.4638C51.3747 25.2636 51.9244 25.2544 52.2767 25.4361C52.6548 25.6108 52.8991 25.9043 53.0095 26.3164C53.1407 26.8058 53.1311 27.3881 52.9807 28.0634C52.8561 28.7317 52.7683 29.2798 52.7173 29.7076C52.7122 29.7918 52.6101 29.8743 52.411 29.9553C52.2118 30.0363 52.1113 30.0218 52.1094 29.9119C52.1057 29.692 52.0917 29.4335 52.0673 29.1364C52.0617 28.8065 52.0176 28.4871 51.9347 28.178C51.8243 27.7659 51.647 27.4131 51.4027 27.1196C51.1584 26.8262 50.8104 26.7124 50.3587 26.7782C50.2746 26.7732 50.1938 26.781 50.1166 26.8017C50.0393 26.8224 49.962 26.8431 49.8847 26.8638C49.1635 27.0571 48.4469 27.5251 47.7349 28.2681C47.0161 28.9852 46.2236 29.943 45.3576 31.1413C43.6563 33.4468 42.0935 35.9085 40.6692 38.5263C39.238 41.1184 37.9374 43.7859 36.7675 46.5289C36.1508 47.9364 35.5633 49.35 35.005 50.7695C34.4467 52.1891 33.9666 53.6429 33.5647 55.1309C33.5408 55.2478 33.5203 55.3775 33.5033 55.5201C33.519 55.6815 33.5114 55.8078 33.4806 55.8989C33.4429 55.9642 33.309 56.0829 33.0791 56.2549C32.856 56.4527 32.626 56.6248 32.3892 56.7711C32.1849 56.9362 32.0442 57.0291 31.9669 57.0498C31.7609 57.1051 31.5831 57.1113 31.4336 57.0685C31.291 57.0515 31.205 56.9365 31.1755 56.7236C31.1548 56.6463 31.1624 56.52 31.1982 56.3448C31.2341 56.1695 31.2546 56.0398 31.2596 55.9556C31.2918 55.5605 31.3111 55.1688 31.3175 54.7806C31.317 54.3666 31.3234 53.9784 31.3367 53.6159C31.3421 52.3998 31.2401 51.1434 31.0307 49.8467C30.8471 48.5432 30.6506 47.243 30.4412 45.9464C30.2506 44.6171 30.1511 43.3186 30.1428 42.0509C30.1344 40.7832 30.3245 39.5866 30.713 38.461C30.2807 38.9081 29.7502 39.8647 29.1215 41.3307C28.486 42.7709 27.7134 44.5239 26.8037 46.5898C26.4919 47.2807 26.1666 48.127 25.8276 49.1289C25.4818 50.105 25.1369 51.1361 24.793 52.2221C24.4679 53.2755 24.1522 54.3125 23.8459 55.3332C23.5585 56.3213 23.3208 57.1856 23.1327 57.9262C23.1088 58.043 23.0883 58.1727 23.0713 58.3153C23.087 58.4768 23.0794 58.603 23.0486 58.6941C23.0109 58.7594 22.8384 58.8885 22.5312 59.0812C22.2566 59.2928 21.9751 59.4787 21.6867 59.6388C21.4052 59.8246 21.2258 59.9279 21.1486 59.9486ZM53.553 49.7337C52.7287 49.9545 51.8847 50.1531 51.0208 50.3293C50.1639 50.5313 49.3095 50.6912 48.4577 50.8091C46.5874 51.1446 45.5143 50.7971 45.2382 49.7668C45.1002 49.2517 45.1406 48.5782 45.3595 47.7466C45.862 45.707 46.3938 43.6734 46.9548 41.6458C47.5089 39.5924 48.0501 37.5425 48.5785 35.496C48.7357 34.8465 48.9452 34.0312 49.2068 33.0501C49.4685 32.0689 49.7405 31.1264 50.0228 30.2225C50.158 29.7998 50.3962 29.3494 50.7375 28.8715C51.0718 28.3678 51.457 28.0023 51.8931 27.7751C51.3591 27.9458 50.674 28.1707 49.8377 28.45C49.0273 28.7224 48.2049 29.0532 47.3705 29.4424C46.555 29.7989 45.8409 30.2249 45.2283 30.7204C44.6345 31.1832 44.265 31.7101 44.1197 32.3012C44.0787 32.5606 44.0507 32.8166 44.0355 33.0691C44.0204 33.3217 44.0439 33.5638 44.106 33.7956C44.2647 34.3881 44.5847 34.7579 45.0658 34.905C45.0916 34.8981 45.1114 34.9204 45.1252 34.9719C45.139 35.0235 45.1013 35.0888 45.012 35.1679C44.9486 35.2401 44.8747 35.2737 44.7906 35.2687C44.5242 35.202 44.1581 34.9688 43.6921 34.5691C43.2192 34.1437 42.8992 33.7739 42.7322 33.4598C42.5721 33.1714 42.4576 32.8984 42.3886 32.6408C42.2091 31.9711 42.29 31.3973 42.6313 30.9193C42.9656 30.4156 43.447 29.9968 44.0753 29.6628C44.6967 29.303 45.3517 29.0171 46.0402 28.805C46.7219 28.5671 47.3332 28.3757 47.8741 28.2308C49.2393 27.865 50.601 27.4863 51.9593 27.0947C53.3106 26.6774 54.656 26.2893 55.9954 25.9304C56.5879 25.7717 57.1674 25.6164 57.7341 25.4646C58.3265 25.3058 58.913 25.1763 59.4935 25.076C60.1443 24.9292 60.6167 24.9406 60.9107 25.1103C61.2304 25.2731 61.4351 25.522 61.5248 25.8568C61.6352 26.2689 61.6212 26.7834 61.4828 27.4003C61.3633 27.9844 61.2463 28.5265 61.1318 29.0265C61.084 29.2602 60.958 29.4596 60.7537 29.6248C60.5426 29.7642 60.4318 29.711 60.4212 29.4654C60.4119 28.9158 60.3383 28.3833 60.2002 27.8682C60.076 27.4045 59.8754 27.0166 59.5985 26.7043C59.3404 26.3593 58.9589 26.1717 58.4538 26.1413C57.9814 26.1299 57.2816 26.2484 56.3543 26.4969C56.0194 26.5866 55.6751 26.6926 55.3214 26.815C54.9866 26.9047 54.6423 27.0108 54.2886 27.1332C53.279 27.4865 52.656 27.9433 52.4196 28.5036C51.8871 29.9162 51.4079 31.425 50.9821 33.0299C50.5752 34.6021 50.1767 36.1031 49.7868 37.5327C49.7748 37.5911 49.7792 37.659 49.7999 37.7362C49.8413 37.8908 49.9779 37.937 50.2098 37.8749C51.1113 37.6333 52.0807 37.3874 53.1179 37.1371C54.1809 36.8798 55.1082 36.6314 55.8997 36.3917C56.0732 36.3176 56.3367 36.2194 56.6904 36.097C57.0699 35.9677 57.4425 35.8126 57.8081 35.6318C58.1995 35.4441 58.4845 35.2712 58.6629 35.1129C58.771 35.0011 58.8379 34.9418 58.8637 34.9349C59.0183 34.8935 59.0597 35.048 58.9879 35.3985C58.9351 35.7164 58.7826 36.0747 58.5306 36.4735C58.2974 36.8397 57.9748 37.078 57.5626 37.1884C56.3005 37.5266 55.2246 37.7873 54.335 37.9704C53.4712 38.1467 52.5113 38.3763 51.4552 38.6593C51.1976 38.7283 50.9272 38.8007 50.6438 38.8767C50.3605 38.9526 50.0548 39.0483 49.7269 39.1638C49.4762 39.2585 49.3235 39.4099 49.2688 39.6178C49.1354 40.1505 49.0175 40.6376 48.915 41.0792C48.8382 41.5139 48.7271 42.0267 48.5818 42.6178C48.4793 43.0594 48.3563 43.6307 48.2129 44.3317C48.0883 45.0001 47.9963 45.6873 47.9371 46.3934C47.8709 47.0737 47.8999 47.6456 48.0241 48.1093C48.2381 48.9078 48.76 49.3615 49.5898 49.4704C50.4127 49.5536 51.3685 49.4632 52.4572 49.199C53.9512 48.7987 55.3815 48.2637 56.748 47.5938C58.1334 46.8913 59.364 46.0232 60.4398 44.9896C61.5344 43.9233 62.3961 42.6571 63.0247 41.1911C63.0624 41.1258 63.0942 41.0897 63.1199 41.0828C63.1972 41.0621 63.2694 41.1255 63.3366 41.2732C63.3969 41.3951 63.4116 41.5016 63.3808 41.5926C62.8445 42.7854 62.3272 43.9455 61.8287 45.073C61.3232 46.1746 60.7281 46.9415 60.0432 47.3734C59.5437 47.6729 58.7025 48.0364 57.5194 48.4638C56.3433 48.917 55.0212 49.3403 53.553 49.7337ZM71.7291 45.7744C70.8276 46.016 69.8366 46.1297 68.7561 46.1155C67.7083 46.1202 66.7152 45.917 65.7768 45.5059C64.8642 45.0878 64.141 44.3981 63.6074 43.4368C63.5471 43.3149 63.4834 43.1802 63.4162 43.0325C63.3748 42.878 63.3334 42.7234 63.292 42.5689C63.078 41.7704 63.0513 40.9493 63.2117 40.1057C63.3722 39.2621 63.6582 38.5781 64.0699 38.0537L64.1085 38.0434C64.16 38.0296 64.2417 38.0767 64.3535 38.1848C64.4841 38.2602 64.5048 38.3375 64.4156 38.4166C64.227 38.7432 64.1132 39.0912 64.0741 39.4605C64.0539 39.7972 64.0921 40.1459 64.1888 40.5065C64.3199 40.9959 64.5318 41.4775 64.8243 41.9512C65.1358 42.3923 65.4686 42.7587 65.8228 43.0503C66.7083 43.7793 67.7902 44.2624 69.0685 44.4996C70.3657 44.7042 71.568 44.6581 72.6756 44.3613C74.1954 43.9541 75.2466 43.1893 75.8293 42.0669C76.4377 40.9376 76.5659 39.7161 76.2139 38.4025C76 37.604 75.6315 36.8469 75.1084 36.1312C74.3995 35.134 73.5558 34.2006 72.5774 33.3309C71.6178 32.4285 70.7166 31.538 69.8739 30.6596C69.136 29.8634 68.6394 28.9888 68.384 28.0358C68.1149 27.0312 68.1651 25.9825 68.5349 24.8895C68.9322 23.8996 69.5676 23.0254 70.441 22.2668C71.3333 21.4756 72.3075 20.9385 73.3636 20.6555C74.0848 20.4622 74.8148 20.4047 75.5535 20.4828C76.2922 20.5609 77.0114 20.8238 77.7111 21.2713C77.9277 21.4617 78.0844 21.7372 78.181 22.0978C78.319 22.613 78.323 23.0398 78.1928 23.3784C78.0507 23.7753 77.9105 24.2822 77.7721 24.8991C77.6337 25.5159 77.5663 25.9343 77.57 26.1541C77.5254 26.1937 77.4104 26.2797 77.2251 26.4122C77.0586 26.512 76.9392 26.5302 76.867 26.4667C76.9148 26.2331 76.9564 25.8216 76.9918 25.2324C77.0271 24.6432 76.9862 24.1296 76.8688 23.6917C76.7929 23.4084 76.6972 23.1027 76.5817 22.7748C76.4851 22.4142 76.2349 22.1499 75.831 21.9821C75.446 21.7816 74.9811 21.6438 74.4365 21.5689C73.8919 21.494 73.2719 21.5497 72.5764 21.736C71.1597 22.1156 70.1883 22.8176 69.6622 23.8421C69.1361 24.8665 69.0041 25.8681 69.2664 26.8469C69.3975 27.3363 69.6317 27.7981 69.9689 28.2323C70.6037 29.056 71.3793 29.7869 72.2956 30.4248C73.212 31.0627 74.1223 31.7298 75.0267 32.4261C75.9499 33.0898 76.7393 33.8721 77.3948 34.7732C77.8319 35.3739 78.1436 36.0219 78.3299 36.7174C78.5991 37.722 78.5865 38.7054 78.2922 39.6677C78.0237 40.6231 77.5472 41.5238 76.8628 42.3697C76.1973 43.183 75.42 43.8882 74.531 44.4853C73.6419 45.0825 72.7079 45.5122 71.7291 45.7744ZM80.7195 42.8271C80.6165 42.8547 80.5323 42.8497 80.467 42.812C80.3759 42.7811 80.3527 42.746 80.3973 42.7064C80.8655 42.084 81.2307 41.4892 81.4928 40.9221C81.7807 40.348 82.0341 39.6451 82.253 38.8135L82.5454 37.7412C82.8259 36.7274 83.1363 35.5676 83.4766 34.2617C83.8168 32.9558 84.1537 31.637 84.487 30.3053C84.8461 28.9668 85.165 27.7356 85.4437 26.6119C85.7481 25.4812 85.9883 24.5748 86.1645 23.8927C86.3337 23.1848 86.4183 22.8308 86.4183 22.8308C86.7894 21.4338 87.3042 20.3158 87.9628 19.4768C88.6403 18.6051 89.2768 17.9928 89.8725 17.6399C87.999 18.1695 86.3627 18.7598 84.9635 19.4108C83.5644 20.0618 82.7349 20.9328 82.4751 22.0239C82.4203 22.2318 82.3983 22.4586 82.4089 22.7042C82.4383 22.9172 82.4807 23.1267 82.5359 23.3327C82.7153 24.0024 83.0233 24.4307 83.4599 24.6174C83.4925 24.6362 83.5123 24.6585 83.5192 24.6843C83.533 24.7358 83.4953 24.8011 83.4061 24.8803C83.3426 24.9525 83.2688 24.9861 83.1846 24.981C82.9183 24.9143 82.5521 24.6812 82.0861 24.2815C81.6132 23.856 81.2933 23.4862 81.1263 23.1721C80.9662 22.8837 80.8516 22.6107 80.7826 22.3531C80.5963 21.6577 80.696 21.0512 81.0819 20.5337C81.4678 20.0162 81.9877 19.587 82.6418 19.2461C83.3216 18.8983 84.0316 18.6114 84.7716 18.3855C85.5117 18.1596 86.1265 17.9811 86.6159 17.8499L88.1614 17.4358C88.6765 17.2978 89.2303 17.1494 89.8227 16.9907C90.434 16.7993 90.9354 16.6097 91.3268 16.422L91.4814 16.3806C91.6359 16.3392 91.7656 16.3596 91.8705 16.442C91.9754 16.5243 92.0416 16.617 92.0692 16.72C92.1245 16.9261 92.0619 17.0533 91.8816 17.1016C91.7786 17.1292 91.6884 17.1533 91.6111 17.174C91.5527 17.1621 91.472 17.1699 91.369 17.1975C90.1841 17.515 89.2753 18.8628 88.6426 21.2409C88.6426 21.2409 88.563 21.5107 88.4039 22.0503C88.2637 22.5572 88.0807 23.2136 87.8549 24.0195C87.6549 24.8185 87.4394 25.663 87.2086 26.5531C86.9778 27.4432 86.7778 28.2422 86.6085 28.9501C86.2582 30.4243 85.8873 32.0283 85.496 33.762C85.1236 35.463 84.7427 37.2353 84.3532 39.0789C84.2557 39.4363 84.1978 39.8384 84.1795 40.285C84.1542 40.7059 84.0128 40.9508 83.7552 41.0198C83.6522 41.0474 83.5199 41.0691 83.3585 41.0847C83.197 41.1004 83.0262 41.1324 82.8458 41.1807C82.408 41.298 82.0294 41.4823 81.7102 41.7334C81.4168 41.9777 81.1346 42.3156 80.8637 42.7471C80.8449 42.7797 80.7968 42.8064 80.7195 42.8271ZM97.4617 37.9269C96.8178 38.0995 96.1057 38.0694 95.3256 37.8367C94.5386 37.5783 93.6765 37.0915 92.7395 36.3763C91.6185 35.4896 90.6366 34.607 89.7938 33.7285C88.9442 32.8242 88.2355 32.0341 87.6678 31.358C87.1259 30.6749 86.72 30.1902 86.4499 29.9036C87.5335 28.1777 88.6936 26.5831 89.9304 25.1198C91.1929 23.6496 92.4563 22.2344 93.7207 20.8741C94.5854 19.9799 95.5101 19.0005 96.4948 17.936C97.4726 16.8458 98.4978 15.8809 99.5704 15.0414C100.324 14.453 101.1 14.0518 101.898 13.8379C102.259 13.7413 102.63 13.6833 103.011 13.6639C103.386 13.6188 103.757 13.6158 104.127 13.6548C104.405 13.6631 104.746 13.7512 105.15 13.919C105.547 14.0611 105.761 14.2936 105.792 14.6165C105.82 14.7195 105.782 14.7849 105.679 14.8125C105.55 14.847 105.414 14.8008 105.269 14.6738C105.125 14.5469 104.929 14.4337 104.682 14.3344C104.434 14.2351 104.091 14.2441 103.654 14.3614C103.087 14.5132 102.487 14.7983 101.853 15.2164C101.246 15.6277 100.712 16.0054 100.252 16.3495C99.3392 17.0634 98.385 17.8298 97.3897 18.6487C96.3944 19.4675 95.4704 20.2949 94.6177 21.1307C93.8473 21.8617 93.046 22.6837 92.214 23.5969C91.382 24.51 90.5792 25.4291 89.8056 26.3542C89.0509 27.2466 88.3725 28.0633 87.7704 28.8044C88.0285 29.1493 88.4414 29.6599 89.009 30.336C89.5767 31.0121 90.2879 31.7602 91.1426 32.5803C91.9904 33.3746 92.9447 34.1541 94.0055 34.919C94.7911 35.4815 95.5122 35.8542 96.1686 36.0372C96.8438 36.1876 97.4391 36.1938 97.9542 36.0557C98.6497 35.8694 99.2419 35.5036 99.7308 34.9585C100.239 34.3807 100.68 33.7103 101.055 32.9472C101.456 32.1771 101.815 31.4046 102.132 30.6295C102.22 30.4404 102.289 30.339 102.341 30.3252C102.444 30.2976 102.512 30.3482 102.547 30.477C102.588 30.6315 102.565 30.8033 102.478 30.9924C101.766 32.8673 101.009 34.4228 100.208 35.6588C99.4333 36.8879 98.5178 37.644 97.4617 37.9269ZM111.056 34.3259C110.231 34.5467 109.387 34.7453 108.524 34.9215C107.667 35.1235 106.812 35.2834 105.96 35.4013C104.09 35.7367 103.017 35.3893 102.741 34.359C102.603 33.8438 102.643 33.1704 102.862 32.3388C103.365 30.2992 103.897 28.2656 104.458 26.238C105.012 24.1846 105.553 22.1347 106.081 20.0882C106.239 19.4387 106.448 18.6234 106.71 17.6422C106.971 16.6611 107.243 15.7186 107.526 14.8147C107.661 14.392 107.899 13.9416 108.24 13.4637C108.575 12.96 108.96 12.5945 109.396 12.3672C108.862 12.5379 108.177 12.7629 107.341 13.0422C106.53 13.3146 105.708 13.6454 104.873 14.0346C104.058 14.3911 103.344 14.8171 102.731 15.3126C102.137 15.7754 101.768 16.3023 101.622 16.8934C101.582 17.1528 101.553 17.4088 101.538 17.6613C101.523 17.9138 101.547 18.156 101.609 18.3878C101.768 18.9803 102.087 19.3501 102.569 19.4972C102.594 19.4903 102.614 19.5126 102.628 19.5641C102.642 19.6156 102.604 19.681 102.515 19.7601C102.451 19.8323 102.378 19.8659 102.293 19.8608C102.027 19.7942 101.661 19.561 101.195 19.1613C100.722 18.7359 100.402 18.3661 100.235 18.0519C100.075 17.7635 99.9604 17.4906 99.8913 17.233C99.7119 16.5633 99.7928 15.9894 100.134 15.5115C100.468 15.0078 100.95 14.5889 101.578 14.2549C102.199 13.8952 102.854 13.6093 103.543 13.3972C104.225 13.1593 104.836 12.9679 105.377 12.823C106.742 12.4572 108.104 12.0785 109.462 11.6869C110.813 11.2696 112.159 10.8815 113.498 10.5226C114.091 10.3639 114.67 10.2086 115.237 10.0567C115.829 9.89799 116.416 9.76846 116.996 9.66813C117.647 9.52134 118.12 9.5328 118.413 9.70251C118.733 9.86531 118.938 10.1141 119.028 10.449C119.138 10.8611 119.124 11.3756 118.986 11.9924C118.866 12.5766 118.749 13.1187 118.635 13.6187C118.587 13.8524 118.461 14.0518 118.257 14.2169C118.045 14.3563 117.935 14.3032 117.924 14.0576C117.915 13.5079 117.841 12.9755 117.703 12.4604C117.579 11.9967 117.378 11.6087 117.101 11.2964C116.843 10.9515 116.462 10.7638 115.957 10.7335C115.484 10.7221 114.784 10.8406 113.857 11.089C113.522 11.1788 113.178 11.2848 112.824 11.4072C112.489 11.4969 112.145 11.603 111.791 11.7254C110.782 12.0787 110.159 12.5355 109.922 13.0958C109.39 14.5084 108.911 16.0172 108.485 17.6221C108.078 19.1943 107.679 20.6952 107.29 22.1249C107.278 22.1833 107.282 22.2511 107.303 22.3284C107.344 22.483 107.481 22.5292 107.713 22.4671C108.614 22.2255 109.583 21.9795 110.621 21.7292C111.684 21.472 112.611 21.2235 113.403 20.9838C113.576 20.9098 113.839 20.8115 114.193 20.6892C114.573 20.5599 114.945 20.4048 115.311 20.224C115.702 20.0363 115.987 19.8633 116.166 19.7051C116.274 19.5933 116.341 19.534 116.366 19.5271C116.521 19.4857 116.562 19.6402 116.491 19.9907C116.438 20.3086 116.285 20.6669 116.033 21.0657C115.8 21.4319 115.478 21.6702 115.065 21.7806C113.803 22.1188 112.727 22.3795 111.838 22.5626C110.974 22.7388 110.014 22.9685 108.958 23.2514C108.7 23.3205 108.43 23.3929 108.147 23.4688C107.863 23.5448 107.558 23.6405 107.23 23.7559C106.979 23.8507 106.826 24.0021 106.772 24.21C106.638 24.7426 106.52 25.2298 106.418 25.6714C106.341 26.106 106.23 26.6189 106.085 27.21C105.982 27.6516 105.859 28.2229 105.716 28.9239C105.591 29.5923 105.499 30.2795 105.44 30.9855C105.374 31.6658 105.403 32.2378 105.527 32.7015C105.741 33.5 106.263 33.9537 107.093 34.0626C107.915 34.1458 108.871 34.0553 109.96 33.7912C111.454 33.3909 112.884 32.8558 114.251 32.186C115.636 31.4835 116.867 30.6154 117.943 29.5818C119.037 28.5154 119.899 27.2493 120.527 25.7833C120.565 25.718 120.597 25.6819 120.623 25.675C120.7 25.6543 120.772 25.7177 120.839 25.8654C120.9 25.9873 120.914 26.0937 120.884 26.1848C120.347 27.3776 119.83 28.5377 119.331 29.6651C118.826 30.7668 118.231 31.5336 117.546 31.9656C117.047 32.2651 116.205 32.6286 115.022 33.056C113.846 33.5092 112.524 33.9324 111.056 34.3259ZM125.265 31.6365C124.467 31.8504 123.645 31.8222 122.799 31.5518C121.961 31.3072 121.237 30.7695 120.628 29.9389C120.41 29.6385 120.223 29.3021 120.068 28.9295C119.938 28.55 119.825 28.18 119.729 27.8194C119.632 27.4588 119.648 27.2612 119.777 27.2267C119.906 27.1922 120.001 27.2908 120.063 27.5227C120.381 28.7075 120.922 29.5426 121.687 30.0278C122.471 30.4803 123.327 30.5824 124.254 30.3339C125.387 30.0302 126.36 29.4382 127.174 28.5577C128.013 27.6703 128.723 26.6655 129.306 25.5431C129.882 24.3949 130.367 23.2709 130.763 22.1711C130.502 22.4342 130.269 22.5934 130.063 22.6486C129.779 22.7245 129.623 22.656 129.593 22.443C129.58 22.3915 129.575 22.3237 129.58 22.2395C129.604 22.1227 129.622 22.035 129.634 21.9766C129.656 21.7498 129.662 21.5136 129.651 21.268C129.666 21.0155 129.685 20.7758 129.707 20.5491C129.692 19.6696 129.622 18.5841 129.497 17.2925C129.372 16.0009 129.14 14.724 128.802 13.4619C128.512 12.38 128.133 11.3773 127.665 10.4537C127.196 9.53012 126.609 8.8317 125.902 8.35845L124.975 8.60691C124.589 8.71044 124.055 8.88114 123.373 9.119C122.717 9.34997 122.066 9.64878 121.418 10.0154C120.771 10.3821 120.271 10.8336 119.918 11.37C119.565 11.9063 119.507 12.5153 119.745 13.197C119.826 13.3962 119.979 13.6588 120.204 13.9849C120.423 14.2852 120.555 14.4706 120.602 14.541L120.298 14.9536C120.068 14.7117 119.788 14.4415 119.46 14.143C119.125 13.8187 118.806 13.5039 118.503 13.1985C118.226 12.8862 118.05 12.6433 117.976 12.4699C117.882 12.2192 117.805 11.8809 117.746 11.455C117.713 11.0222 117.822 10.6064 118.074 10.2075C118.371 9.76915 118.84 9.40872 119.482 9.12624C120.15 8.83686 120.845 8.59554 121.566 8.40229C122.261 8.21594 122.938 8.06225 123.596 7.94122C124.253 7.82019 124.788 7.70446 125.201 7.59403C125.201 7.59403 125.793 7.43529 126.978 7.1178C128.182 6.76766 129.646 6.36137 131.372 5.89895L130.83 7.12092C130.109 7.31417 129.516 7.47292 129.053 7.59715C128.608 7.68872 128.205 7.78282 127.845 7.87945C127.503 7.94341 127.087 8.04096 126.598 8.1721C127.665 8.54873 128.518 9.25885 129.156 10.3025C129.821 11.3392 130.325 12.5015 130.67 13.7894C130.967 14.897 131.17 16.0159 131.28 17.146C131.383 18.2504 131.431 19.2037 131.425 20.0059C132.187 18.0073 132.884 15.9709 133.515 13.8968C134.147 11.8227 134.934 9.81717 135.878 7.88014C136.185 7.2734 136.552 6.58157 136.979 5.80463C137.424 4.99504 137.942 4.24891 138.532 3.56626C139.148 2.8767 139.83 2.43185 140.577 2.2317C140.937 2.13507 141.267 2.12952 141.566 2.21505C141.865 2.30058 142.156 2.51238 142.44 2.85043C142.652 3.12502 142.792 3.3911 142.861 3.64868C142.972 4.06081 142.994 4.45501 142.93 4.83128C142.865 5.20754 142.818 5.49618 142.789 5.69719C142.791 5.80712 142.74 5.8759 142.637 5.9035C142.534 5.93111 142.482 5.88995 142.48 5.78001C142.497 5.63742 142.488 5.50173 142.454 5.37294C142.419 5.24415 142.388 5.12824 142.36 5.0252C142.236 4.56156 142.006 4.16761 141.671 3.84336C141.336 3.5191 140.91 3.42599 140.395 3.56403C139.674 3.75728 138.972 4.33185 138.29 5.28774C137.607 6.24363 137.006 7.24665 136.487 8.29682C135.562 10.2012 134.796 11.98 134.19 13.6332C133.61 15.2795 133.088 16.9378 132.624 18.608C132.154 20.2524 131.657 22.0558 131.134 24.0181C130.848 25.1161 130.462 26.1996 129.975 27.2686C129.508 28.305 128.896 29.2144 128.139 29.9969C127.408 30.7725 126.45 31.319 125.265 31.6365Z" fill="black"/>
<path d="M21.1486 59.9486C20.9425 60.0038 20.7647 60.0101 20.6152 59.9673C20.4726 59.9503 20.3866 59.8353 20.3571 59.6223C20.3364 59.5451 20.344 59.4188 20.3799 59.2435C20.4157 59.0683 20.4362 58.9386 20.4412 58.8544C20.4734 58.4593 20.4927 58.0676 20.4991 57.6794C20.4986 57.2654 20.505 56.8772 20.5183 56.5147C20.4993 55.0014 20.458 53.5079 20.3944 52.0341C20.3239 50.5346 20.189 49.0523 19.9897 47.5873C19.9446 47.2129 19.8728 46.7904 19.7744 46.3199C19.669 45.8236 19.5438 45.305 19.3989 44.7641C19.0676 43.5277 18.5868 42.2485 17.9565 40.9266C17.3263 39.6047 16.5203 38.6059 15.5386 37.9303L12.6022 38.7171C12.2159 38.8206 11.6818 38.9913 11.0002 39.2292C10.3443 39.4602 9.67986 39.7624 9.00695 40.136C8.3598 40.5026 7.85961 40.9542 7.5064 41.4905C7.15318 42.0269 7.09551 42.6359 7.33338 43.3176C7.41435 43.5167 7.56754 43.7793 7.79296 44.1055C8.01147 44.4058 8.15684 44.5877 8.22906 44.6512L7.88688 45.0742C7.65641 44.8322 7.37695 44.562 7.0485 44.2635C6.71315 43.9393 6.40701 43.621 6.13008 43.3087C5.85315 42.9964 5.67765 42.7535 5.60357 42.5801C5.5088 42.3295 5.43195 41.9911 5.37304 41.5652C5.31413 41.1393 5.42356 40.7235 5.70136 40.3177C5.998 39.8794 6.46738 39.5189 7.10948 39.2364C7.77734 38.9471 8.47188 38.7057 9.1931 38.5125C9.88857 38.3261 10.5652 38.1725 11.2229 38.0514C11.8807 37.9304 12.4156 37.8147 12.8278 37.7042C12.8278 37.7042 13.124 37.6249 13.7164 37.4661C14.3088 37.3074 15.0558 37.1072 15.9574 36.8657C16.8777 36.5914 17.8531 36.3163 18.8834 36.0402C19.9137 35.7641 20.8539 35.5122 21.7039 35.2845L21.1617 36.5064C20.389 36.7135 19.6162 36.9205 18.8435 37.1276C18.0896 37.302 17.3263 37.4927 16.5536 37.6998C17.5228 38.0198 18.3179 38.566 18.9389 39.3382C19.5857 40.1036 20.1012 40.9455 20.4853 41.8641C20.8695 42.7826 21.172 43.654 21.3929 44.4782C21.4826 44.8131 21.556 45.1385 21.613 45.4545C21.6959 45.7636 21.7683 46.0341 21.8304 46.2659C22.1033 47.4903 22.3258 48.9905 22.498 50.7665C22.6702 52.5424 22.741 54.2489 22.7103 55.886C23.2428 54.4733 23.8197 52.8142 24.441 50.9084C25.0811 48.97 25.8293 46.9199 26.6856 44.7579C27.5607 42.5633 28.569 40.402 29.7105 38.2741C30.175 37.4318 30.6747 36.5663 31.2096 35.6776C31.7445 34.7889 32.3619 34.0023 33.0619 33.3178C33.762 32.6333 34.5885 32.1633 35.5415 31.908C36.3658 31.6871 37.0314 31.6468 37.5383 31.7871L37.4203 32.2742C37.3104 32.276 37.2039 32.2908 37.1009 32.3184C37.0167 32.3133 36.9102 32.328 36.7814 32.3626C36.0602 32.5558 35.3461 32.9818 34.6392 33.6405C33.958 34.2924 33.4572 34.8959 33.1366 35.4511C32.5521 36.4636 32.1893 37.5823 32.0482 38.8072C31.9001 40.0064 31.8888 41.2518 32.014 42.5434C32.1581 43.8023 32.3477 45.0766 32.5828 46.3664C32.8111 47.6304 33.0221 48.83 33.2158 49.9652C33.4353 51.0935 33.5396 52.1008 33.5287 52.9872C34.1844 51.2103 35.009 49.0844 36.0023 46.6097C37.0214 44.128 38.2387 41.5104 39.6543 38.7569C41.063 35.9776 42.6959 33.2624 44.553 30.6114C44.932 30.0682 45.4388 29.4354 46.0735 28.7132C46.734 27.9841 47.4538 27.3219 48.233 26.7266C49.031 26.0987 49.8292 25.6778 50.6277 25.4638C51.3747 25.2636 51.9244 25.2544 52.2767 25.4361C52.6548 25.6108 52.8991 25.9043 53.0095 26.3164C53.1407 26.8058 53.1311 27.3881 52.9807 28.0634C52.8561 28.7317 52.7683 29.2798 52.7173 29.7076C52.7122 29.7918 52.6101 29.8743 52.411 29.9553C52.2118 30.0363 52.1113 30.0218 52.1094 29.9119C52.1057 29.692 52.0917 29.4335 52.0673 29.1364C52.0617 28.8065 52.0176 28.4871 51.9347 28.178C51.8243 27.7659 51.647 27.4131 51.4027 27.1196C51.1584 26.8262 50.8104 26.7124 50.3587 26.7782C50.2746 26.7732 50.1938 26.781 50.1166 26.8017C50.0393 26.8224 49.962 26.8431 49.8847 26.8638C49.1635 27.0571 48.4469 27.5251 47.7349 28.2681C47.0161 28.9852 46.2236 29.943 45.3576 31.1413C43.6563 33.4468 42.0935 35.9085 40.6692 38.5263C39.238 41.1184 37.9374 43.7859 36.7675 46.5289C36.1508 47.9364 35.5633 49.35 35.005 50.7695C34.4467 52.1891 33.9666 53.6429 33.5647 55.1309C33.5408 55.2478 33.5203 55.3775 33.5033 55.5201C33.519 55.6815 33.5114 55.8078 33.4806 55.8989C33.4429 55.9642 33.309 56.0829 33.0791 56.2549C32.856 56.4527 32.626 56.6248 32.3892 56.7711C32.1849 56.9362 32.0442 57.0291 31.9669 57.0498C31.7609 57.1051 31.5831 57.1113 31.4336 57.0685C31.291 57.0515 31.205 56.9365 31.1755 56.7236C31.1548 56.6463 31.1624 56.52 31.1982 56.3448C31.2341 56.1695 31.2546 56.0398 31.2596 55.9556C31.2918 55.5605 31.3111 55.1688 31.3175 54.7806C31.317 54.3666 31.3234 53.9784 31.3367 53.6159C31.3421 52.3998 31.2401 51.1434 31.0307 49.8467C30.8471 48.5432 30.6506 47.243 30.4412 45.9464C30.2506 44.6171 30.1511 43.3186 30.1428 42.0509C30.1344 40.7832 30.3245 39.5866 30.713 38.461C30.2807 38.9081 29.7502 39.8647 29.1215 41.3307C28.486 42.7709 27.7134 44.5239 26.8037 46.5898C26.4919 47.2807 26.1666 48.127 25.8276 49.1289C25.4818 50.105 25.1369 51.1361 24.793 52.2221C24.4679 53.2755 24.1522 54.3125 23.8459 55.3332C23.5585 56.3213 23.3208 57.1856 23.1327 57.9262C23.1088 58.043 23.0883 58.1727 23.0713 58.3153C23.087 58.4768 23.0794 58.603 23.0486 58.6941C23.0109 58.7594 22.8384 58.8885 22.5312 59.0812C22.2566 59.2928 21.9751 59.4787 21.6867 59.6388C21.4052 59.8246 21.2258 59.9279 21.1486 59.9486ZM53.553 49.7337C52.7287 49.9545 51.8847 50.1531 51.0208 50.3293C50.1639 50.5313 49.3095 50.6912 48.4577 50.8091C46.5874 51.1446 45.5143 50.7971 45.2382 49.7668C45.1002 49.2517 45.1406 48.5782 45.3595 47.7466C45.862 45.707 46.3938 43.6734 46.9548 41.6458C47.5089 39.5924 48.0501 37.5425 48.5785 35.496C48.7357 34.8465 48.9452 34.0312 49.2068 33.0501C49.4685 32.0689 49.7405 31.1264 50.0228 30.2225C50.158 29.7998 50.3962 29.3494 50.7375 28.8715C51.0718 28.3678 51.457 28.0023 51.8931 27.7751C51.3591 27.9458 50.674 28.1707 49.8377 28.45C49.0273 28.7224 48.2049 29.0532 47.3705 29.4424C46.555 29.7989 45.8409 30.2249 45.2283 30.7204C44.6345 31.1832 44.265 31.7101 44.1197 32.3012C44.0787 32.5606 44.0507 32.8166 44.0355 33.0691C44.0204 33.3217 44.0439 33.5638 44.106 33.7956C44.2647 34.3881 44.5847 34.7579 45.0658 34.905C45.0916 34.8981 45.1114 34.9204 45.1252 34.9719C45.139 35.0235 45.1013 35.0888 45.012 35.1679C44.9486 35.2401 44.8747 35.2737 44.7906 35.2687C44.5242 35.202 44.1581 34.9688 43.6921 34.5691C43.2192 34.1437 42.8992 33.7739 42.7322 33.4598C42.5721 33.1714 42.4576 32.8984 42.3886 32.6408C42.2091 31.9711 42.29 31.3973 42.6313 30.9193C42.9656 30.4156 43.447 29.9968 44.0753 29.6628C44.6967 29.303 45.3517 29.0171 46.0402 28.805C46.7219 28.5671 47.3332 28.3757 47.8741 28.2308C49.2393 27.865 50.601 27.4863 51.9593 27.0947C53.3106 26.6774 54.656 26.2893 55.9954 25.9304C56.5879 25.7717 57.1674 25.6164 57.7341 25.4646C58.3265 25.3058 58.913 25.1763 59.4935 25.076C60.1443 24.9292 60.6167 24.9406 60.9107 25.1103C61.2304 25.2731 61.4351 25.522 61.5248 25.8568C61.6352 26.2689 61.6212 26.7834 61.4828 27.4003C61.3633 27.9844 61.2463 28.5265 61.1318 29.0265C61.084 29.2602 60.958 29.4596 60.7537 29.6248C60.5426 29.7642 60.4318 29.711 60.4212 29.4654C60.4119 28.9158 60.3383 28.3833 60.2002 27.8682C60.076 27.4045 59.8754 27.0166 59.5985 26.7043C59.3404 26.3593 58.9589 26.1717 58.4538 26.1413C57.9814 26.1299 57.2816 26.2484 56.3543 26.4969C56.0194 26.5866 55.6751 26.6926 55.3214 26.815C54.9866 26.9047 54.6423 27.0108 54.2886 27.1332C53.279 27.4865 52.656 27.9433 52.4196 28.5036C51.8871 29.9162 51.4079 31.425 50.9821 33.0299C50.5752 34.6021 50.1767 36.1031 49.7868 37.5327C49.7748 37.5911 49.7792 37.659 49.7999 37.7362C49.8413 37.8908 49.9779 37.937 50.2098 37.8749C51.1113 37.6333 52.0807 37.3874 53.1179 37.1371C54.1809 36.8798 55.1082 36.6314 55.8997 36.3917C56.0732 36.3176 56.3367 36.2194 56.6904 36.097C57.0699 35.9677 57.4425 35.8126 57.8081 35.6318C58.1995 35.4441 58.4845 35.2712 58.6629 35.1129C58.771 35.0011 58.8379 34.9418 58.8637 34.9349C59.0183 34.8935 59.0597 35.048 58.9879 35.3985C58.9351 35.7164 58.7826 36.0747 58.5306 36.4735C58.2974 36.8397 57.9748 37.078 57.5626 37.1884C56.3005 37.5266 55.2246 37.7873 54.335 37.9704C53.4712 38.1467 52.5113 38.3763 51.4552 38.6593C51.1976 38.7283 50.9272 38.8007 50.6438 38.8767C50.3605 38.9526 50.0548 39.0483 49.7269 39.1638C49.4762 39.2585 49.3235 39.4099 49.2688 39.6178C49.1354 40.1505 49.0175 40.6376 48.915 41.0792C48.8382 41.5139 48.7271 42.0267 48.5818 42.6178C48.4793 43.0594 48.3563 43.6307 48.2129 44.3317C48.0883 45.0001 47.9963 45.6873 47.9371 46.3934C47.8709 47.0737 47.8999 47.6456 48.0241 48.1093C48.2381 48.9078 48.76 49.3615 49.5898 49.4704C50.4127 49.5536 51.3685 49.4632 52.4572 49.199C53.9512 48.7987 55.3815 48.2637 56.748 47.5938C58.1334 46.8913 59.364 46.0232 60.4398 44.9896C61.5344 43.9233 62.3961 42.6571 63.0247 41.1911C63.0624 41.1258 63.0942 41.0897 63.1199 41.0828C63.1972 41.0621 63.2694 41.1255 63.3366 41.2732C63.3969 41.3951 63.4116 41.5016 63.3808 41.5926C62.8445 42.7854 62.3272 43.9455 61.8287 45.073C61.3232 46.1746 60.7281 46.9415 60.0432 47.3734C59.5437 47.6729 58.7025 48.0364 57.5194 48.4638C56.3433 48.917 55.0212 49.3403 53.553 49.7337ZM71.7291 45.7744C70.8276 46.016 69.8366 46.1297 68.7561 46.1155C67.7083 46.1202 66.7152 45.917 65.7768 45.5059C64.8642 45.0878 64.141 44.3981 63.6074 43.4368C63.5471 43.3149 63.4834 43.1802 63.4162 43.0325C63.3748 42.878 63.3334 42.7234 63.292 42.5689C63.078 41.7704 63.0513 40.9493 63.2117 40.1057C63.3722 39.2621 63.6582 38.5781 64.0699 38.0537L64.1085 38.0434C64.16 38.0296 64.2417 38.0767 64.3535 38.1848C64.4841 38.2602 64.5048 38.3375 64.4156 38.4166C64.227 38.7432 64.1132 39.0912 64.0741 39.4605C64.0539 39.7972 64.0921 40.1459 64.1888 40.5065C64.3199 40.9959 64.5318 41.4775 64.8243 41.9512C65.1358 42.3923 65.4686 42.7587 65.8228 43.0503C66.7083 43.7793 67.7902 44.2624 69.0685 44.4996C70.3657 44.7042 71.568 44.6581 72.6756 44.3613C74.1954 43.9541 75.2466 43.1893 75.8293 42.0669C76.4377 40.9376 76.5659 39.7161 76.2139 38.4025C76 37.604 75.6315 36.8469 75.1084 36.1312C74.3995 35.134 73.5558 34.2006 72.5774 33.3309C71.6178 32.4285 70.7166 31.538 69.8739 30.6596C69.136 29.8634 68.6394 28.9888 68.384 28.0358C68.1149 27.0312 68.1651 25.9825 68.5349 24.8895C68.9322 23.8996 69.5676 23.0254 70.441 22.2668C71.3333 21.4756 72.3075 20.9385 73.3636 20.6555C74.0848 20.4622 74.8148 20.4047 75.5535 20.4828C76.2922 20.5609 77.0114 20.8238 77.7111 21.2713C77.9277 21.4617 78.0844 21.7372 78.181 22.0978C78.319 22.613 78.323 23.0398 78.1928 23.3784C78.0507 23.7753 77.9105 24.2822 77.7721 24.8991C77.6337 25.5159 77.5663 25.9343 77.57 26.1541C77.5254 26.1937 77.4104 26.2797 77.2251 26.4122C77.0586 26.512 76.9392 26.5302 76.867 26.4667C76.9148 26.2331 76.9564 25.8216 76.9918 25.2324C77.0271 24.6432 76.9862 24.1296 76.8688 23.6917C76.7929 23.4084 76.6972 23.1027 76.5817 22.7748C76.4851 22.4142 76.2349 22.1499 75.831 21.9821C75.446 21.7816 74.9811 21.6438 74.4365 21.5689C73.8919 21.494 73.2719 21.5497 72.5764 21.736C71.1597 22.1156 70.1883 22.8176 69.6622 23.8421C69.1361 24.8665 69.0041 25.8681 69.2664 26.8469C69.3975 27.3363 69.6317 27.7981 69.9689 28.2323C70.6037 29.056 71.3793 29.7869 72.2956 30.4248C73.212 31.0627 74.1223 31.7298 75.0267 32.4261C75.9499 33.0898 76.7393 33.8721 77.3948 34.7732C77.8319 35.3739 78.1436 36.0219 78.3299 36.7174C78.5991 37.722 78.5865 38.7054 78.2922 39.6677C78.0237 40.6231 77.5472 41.5238 76.8628 42.3697C76.1973 43.183 75.42 43.8882 74.531 44.4853C73.6419 45.0825 72.7079 45.5122 71.7291 45.7744ZM80.7195 42.8271C80.6165 42.8547 80.5323 42.8497 80.467 42.812C80.3759 42.7811 80.3527 42.746 80.3973 42.7064C80.8655 42.084 81.2307 41.4892 81.4928 40.9221C81.7807 40.348 82.0341 39.6451 82.253 38.8135L82.5454 37.7412C82.8259 36.7274 83.1363 35.5676 83.4766 34.2617C83.8168 32.9558 84.1537 31.637 84.487 30.3053C84.8461 28.9668 85.165 27.7356 85.4437 26.6119C85.7481 25.4812 85.9883 24.5748 86.1645 23.8927C86.3337 23.1848 86.4183 22.8308 86.4183 22.8308C86.7894 21.4338 87.3042 20.3158 87.9628 19.4768C88.6403 18.6051 89.2768 17.9928 89.8725 17.6399C87.999 18.1695 86.3627 18.7598 84.9635 19.4108C83.5644 20.0618 82.7349 20.9328 82.4751 22.0239C82.4203 22.2318 82.3983 22.4586 82.4089 22.7042C82.4383 22.9172 82.4807 23.1267 82.5359 23.3327C82.7153 24.0024 83.0233 24.4307 83.4599 24.6174C83.4925 24.6362 83.5123 24.6585 83.5192 24.6843C83.533 24.7358 83.4953 24.8011 83.4061 24.8803C83.3426 24.9525 83.2688 24.9861 83.1846 24.981C82.9183 24.9143 82.5521 24.6812 82.0861 24.2815C81.6132 23.856 81.2933 23.4862 81.1263 23.1721C80.9662 22.8837 80.8516 22.6107 80.7826 22.3531C80.5963 21.6577 80.696 21.0512 81.0819 20.5337C81.4678 20.0162 81.9877 19.587 82.6418 19.2461C83.3216 18.8983 84.0316 18.6114 84.7716 18.3855C85.5117 18.1596 86.1265 17.9811 86.6159 17.8499L88.1614 17.4358C88.6765 17.2978 89.2303 17.1494 89.8227 16.9907C90.434 16.7993 90.9354 16.6097 91.3268 16.422L91.4814 16.3806C91.6359 16.3392 91.7656 16.3596 91.8705 16.442C91.9754 16.5243 92.0416 16.617 92.0692 16.72C92.1245 16.9261 92.0619 17.0533 91.8816 17.1016C91.7786 17.1292 91.6884 17.1533 91.6111 17.174C91.5527 17.1621 91.472 17.1699 91.369 17.1975C90.1841 17.515 89.2753 18.8628 88.6426 21.2409C88.6426 21.2409 88.563 21.5107 88.4039 22.0503C88.2637 22.5572 88.0807 23.2136 87.8549 24.0195C87.6549 24.8185 87.4394 25.663 87.2086 26.5531C86.9778 27.4432 86.7778 28.2422 86.6085 28.9501C86.2582 30.4243 85.8873 32.0283 85.496 33.762C85.1236 35.463 84.7427 37.2353 84.3532 39.0789C84.2557 39.4363 84.1978 39.8384 84.1795 40.285C84.1542 40.7059 84.0128 40.9508 83.7552 41.0198C83.6522 41.0474 83.5199 41.0691 83.3585 41.0847C83.197 41.1004 83.0262 41.1324 82.8458 41.1807C82.408 41.298 82.0294 41.4823 81.7102 41.7334C81.4168 41.9777 81.1346 42.3156 80.8637 42.7471C80.8449 42.7797 80.7968 42.8064 80.7195 42.8271ZM97.4617 37.9269C96.8178 38.0995 96.1057 38.0694 95.3256 37.8367C94.5386 37.5783 93.6765 37.0915 92.7395 36.3763C91.6185 35.4896 90.6366 34.607 89.7938 33.7285C88.9442 32.8242 88.2355 32.0341 87.6678 31.358C87.1259 30.6749 86.72 30.1902 86.4499 29.9036C87.5335 28.1777 88.6936 26.5831 89.9304 25.1198C91.1929 23.6496 92.4563 22.2344 93.7207 20.8741C94.5854 19.9799 95.5101 19.0005 96.4948 17.936C97.4726 16.8458 98.4978 15.8809 99.5704 15.0414C100.324 14.453 101.1 14.0518 101.898 13.8379C102.259 13.7413 102.63 13.6833 103.011 13.6639C103.386 13.6188 103.757 13.6158 104.127 13.6548C104.405 13.6631 104.746 13.7512 105.15 13.919C105.547 14.0611 105.761 14.2936 105.792 14.6165C105.82 14.7195 105.782 14.7849 105.679 14.8125C105.55 14.847 105.414 14.8008 105.269 14.6738C105.125 14.5469 104.929 14.4337 104.682 14.3344C104.434 14.2351 104.091 14.2441 103.654 14.3614C103.087 14.5132 102.487 14.7983 101.853 15.2164C101.246 15.6277 100.712 16.0054 100.252 16.3495C99.3392 17.0634 98.385 17.8298 97.3897 18.6487C96.3944 19.4675 95.4704 20.2949 94.6177 21.1307C93.8473 21.8617 93.046 22.6837 92.214 23.5969C91.382 24.51 90.5792 25.4291 89.8056 26.3542C89.0509 27.2466 88.3725 28.0633 87.7704 28.8044C88.0285 29.1493 88.4414 29.6599 89.009 30.336C89.5767 31.0121 90.2879 31.7602 91.1426 32.5803C91.9904 33.3746 92.9447 34.1541 94.0055 34.919C94.7911 35.4815 95.5122 35.8542 96.1686 36.0372C96.8438 36.1876 97.4391 36.1938 97.9542 36.0557C98.6497 35.8694 99.2419 35.5036 99.7308 34.9585C100.239 34.3807 100.68 33.7103 101.055 32.9472C101.456 32.1771 101.815 31.4046 102.132 30.6295C102.22 30.4404 102.289 30.339 102.341 30.3252C102.444 30.2976 102.512 30.3482 102.547 30.477C102.588 30.6315 102.565 30.8033 102.478 30.9924C101.766 32.8673 101.009 34.4228 100.208 35.6588C99.4333 36.8879 98.5178 37.644 97.4617 37.9269ZM111.056 34.3259C110.231 34.5467 109.387 34.7453 108.524 34.9215C107.667 35.1235 106.812 35.2834 105.96 35.4013C104.09 35.7367 103.017 35.3893 102.741 34.359C102.603 33.8438 102.643 33.1704 102.862 32.3388C103.365 30.2992 103.897 28.2656 104.458 26.238C105.012 24.1846 105.553 22.1347 106.081 20.0882C106.239 19.4387 106.448 18.6234 106.71 17.6422C106.971 16.6611 107.243 15.7186 107.526 14.8147C107.661 14.392 107.899 13.9416 108.24 13.4637C108.575 12.96 108.96 12.5945 109.396 12.3672C108.862 12.5379 108.177 12.7629 107.341 13.0422C106.53 13.3146 105.708 13.6454 104.873 14.0346C104.058 14.3911 103.344 14.8171 102.731 15.3126C102.137 15.7754 101.768 16.3023 101.622 16.8934C101.582 17.1528 101.553 17.4088 101.538 17.6613C101.523 17.9138 101.547 18.156 101.609 18.3878C101.768 18.9803 102.087 19.3501 102.569 19.4972C102.594 19.4903 102.614 19.5126 102.628 19.5641C102.642 19.6156 102.604 19.681 102.515 19.7601C102.451 19.8323 102.378 19.8659 102.293 19.8608C102.027 19.7942 101.661 19.561 101.195 19.1613C100.722 18.7359 100.402 18.3661 100.235 18.0519C100.075 17.7635 99.9604 17.4906 99.8913 17.233C99.7119 16.5633 99.7928 15.9894 100.134 15.5115C100.468 15.0078 100.95 14.5889 101.578 14.2549C102.199 13.8952 102.854 13.6093 103.543 13.3972C104.225 13.1593 104.836 12.9679 105.377 12.823C106.742 12.4572 108.104 12.0785 109.462 11.6869C110.813 11.2696 112.159 10.8815 113.498 10.5226C114.091 10.3639 114.67 10.2086 115.237 10.0567C115.829 9.89799 116.416 9.76846 116.996 9.66813C117.647 9.52134 118.12 9.5328 118.413 9.70251C118.733 9.86531 118.938 10.1141 119.028 10.449C119.138 10.8611 119.124 11.3756 118.986 11.9924C118.866 12.5766 118.749 13.1187 118.635 13.6187C118.587 13.8524 118.461 14.0518 118.257 14.2169C118.045 14.3563 117.935 14.3032 117.924 14.0576C117.915 13.5079 117.841 12.9755 117.703 12.4604C117.579 11.9967 117.378 11.6087 117.101 11.2964C116.843 10.9515 116.462 10.7638 115.957 10.7335C115.484 10.7221 114.784 10.8406 113.857 11.089C113.522 11.1788 113.178 11.2848 112.824 11.4072C112.489 11.4969 112.145 11.603 111.791 11.7254C110.782 12.0787 110.159 12.5355 109.922 13.0958C109.39 14.5084 108.911 16.0172 108.485 17.6221C108.078 19.1943 107.679 20.6952 107.29 22.1249C107.278 22.1833 107.282 22.2511 107.303 22.3284C107.344 22.483 107.481 22.5292 107.713 22.4671C108.614 22.2255 109.583 21.9795 110.621 21.7292C111.684 21.472 112.611 21.2235 113.403 20.9838C113.576 20.9098 113.839 20.8115 114.193 20.6892C114.573 20.5599 114.945 20.4048 115.311 20.224C115.702 20.0363 115.987 19.8633 116.166 19.7051C116.274 19.5933 116.341 19.534 116.366 19.5271C116.521 19.4857 116.562 19.6402 116.491 19.9907C116.438 20.3086 116.285 20.6669 116.033 21.0657C115.8 21.4319 115.478 21.6702 115.065 21.7806C113.803 22.1188 112.727 22.3795 111.838 22.5626C110.974 22.7388 110.014 22.9685 108.958 23.2514C108.7 23.3205 108.43 23.3929 108.147 23.4688C107.863 23.5448 107.558 23.6405 107.23 23.7559C106.979 23.8507 106.826 24.0021 106.772 24.21C106.638 24.7426 106.52 25.2298 106.418 25.6714C106.341 26.106 106.23 26.6189 106.085 27.21C105.982 27.6516 105.859 28.2229 105.716 28.9239C105.591 29.5923 105.499 30.2795 105.44 30.9855C105.374 31.6658 105.403 32.2378 105.527 32.7015C105.741 33.5 106.263 33.9537 107.093 34.0626C107.915 34.1458 108.871 34.0553 109.96 33.7912C111.454 33.3909 112.884 32.8558 114.251 32.186C115.636 31.4835 116.867 30.6154 117.943 29.5818C119.037 28.5154 119.899 27.2493 120.527 25.7833C120.565 25.718 120.597 25.6819 120.623 25.675C120.7 25.6543 120.772 25.7177 120.839 25.8654C120.9 25.9873 120.914 26.0937 120.884 26.1848C120.347 27.3776 119.83 28.5377 119.331 29.6651C118.826 30.7668 118.231 31.5336 117.546 31.9656C117.047 32.2651 116.205 32.6286 115.022 33.056C113.846 33.5092 112.524 33.9324 111.056 34.3259ZM125.265 31.6365C124.467 31.8504 123.645 31.8222 122.799 31.5518C121.961 31.3072 121.237 30.7695 120.628 29.9389C120.41 29.6385 120.223 29.3021 120.068 28.9295C119.938 28.55 119.825 28.18 119.729 27.8194C119.632 27.4588 119.648 27.2612 119.777 27.2267C119.906 27.1922 120.001 27.2908 120.063 27.5227C120.381 28.7075 120.922 29.5426 121.687 30.0278C122.471 30.4803 123.327 30.5824 124.254 30.3339C125.387 30.0302 126.36 29.4382 127.174 28.5577C128.013 27.6703 128.723 26.6655 129.306 25.5431C129.882 24.3949 130.367 23.2709 130.763 22.1711C130.502 22.4342 130.269 22.5934 130.063 22.6486C129.779 22.7245 129.623 22.656 129.593 22.443C129.58 22.3915 129.575 22.3237 129.58 22.2395C129.604 22.1227 129.622 22.035 129.634 21.9766C129.656 21.7498 129.662 21.5136 129.651 21.268C129.666 21.0155 129.685 20.7758 129.707 20.5491C129.692 19.6696 129.622 18.5841 129.497 17.2925C129.372 16.0009 129.14 14.724 128.802 13.4619C128.512 12.38 128.133 11.3773 127.665 10.4537C127.196 9.53012 126.609 8.8317 125.902 8.35845L124.975 8.60691C124.589 8.71044 124.055 8.88114 123.373 9.119C122.717 9.34997 122.066 9.64878 121.418 10.0154C120.771 10.3821 120.271 10.8336 119.918 11.37C119.565 11.9063 119.507 12.5153 119.745 13.197C119.826 13.3962 119.979 13.6588 120.204 13.9849C120.423 14.2852 120.555 14.4706 120.602 14.541L120.298 14.9536C120.068 14.7117 119.788 14.4415 119.46 14.143C119.125 13.8187 118.806 13.5039 118.503 13.1985C118.226 12.8862 118.05 12.6433 117.976 12.4699C117.882 12.2192 117.805 11.8809 117.746 11.455C117.713 11.0222 117.822 10.6064 118.074 10.2075C118.371 9.76915 118.84 9.40872 119.482 9.12624C120.15 8.83686 120.845 8.59554 121.566 8.40229C122.261 8.21594 122.938 8.06225 123.596 7.94122C124.253 7.82019 124.788 7.70446 125.201 7.59403C125.201 7.59403 125.793 7.43529 126.978 7.1178C128.182 6.76766 129.646 6.36137 131.372 5.89895L130.83 7.12092C130.109 7.31417 129.516 7.47292 129.053 7.59715C128.608 7.68872 128.205 7.78282 127.845 7.87945C127.503 7.94341 127.087 8.04096 126.598 8.1721C127.665 8.54873 128.518 9.25885 129.156 10.3025C129.821 11.3392 130.325 12.5015 130.67 13.7894C130.967 14.897 131.17 16.0159 131.28 17.146C131.383 18.2504 131.431 19.2037 131.425 20.0059C132.187 18.0073 132.884 15.9709 133.515 13.8968C134.147 11.8227 134.934 9.81717 135.878 7.88014C136.185 7.2734 136.552 6.58157 136.979 5.80463C137.424 4.99504 137.942 4.24891 138.532 3.56626C139.148 2.8767 139.83 2.43185 140.577 2.2317C140.937 2.13507 141.267 2.12952 141.566 2.21505C141.865 2.30058 142.156 2.51238 142.44 2.85043C142.652 3.12502 142.792 3.3911 142.861 3.64868C142.972 4.06081 142.994 4.45501 142.93 4.83128C142.865 5.20754 142.818 5.49618 142.789 5.69719C142.791 5.80712 142.74 5.8759 142.637 5.9035C142.534 5.93111 142.482 5.88995 142.48 5.78001C142.497 5.63742 142.488 5.50173 142.454 5.37294C142.419 5.24415 142.388 5.12824 142.36 5.0252C142.236 4.56156 142.006 4.16761 141.671 3.84336C141.336 3.5191 140.91 3.42599 140.395 3.56403C139.674 3.75728 138.972 4.33185 138.29 5.28774C137.607 6.24363 137.006 7.24665 136.487 8.29682C135.562 10.2012 134.796 11.98 134.19 13.6332C133.61 15.2795 133.088 16.9378 132.624 18.608C132.154 20.2524 131.657 22.0558 131.134 24.0181C130.848 25.1161 130.462 26.1996 129.975 27.2686C129.508 28.305 128.896 29.2144 128.139 29.9969C127.408 30.7725 126.45 31.319 125.265 31.6365Z" fill="black" fill-opacity="0.2"/>
</g>
<defs>
<filter id="filter0_d_143_169" x="0.30188" y="0.944092" width="152.481" height="69.7377" filterUnits="userSpaceOnUse" color-interpolation-filters="sRGB">
<feFlood flood-opacity="0" result="BackgroundImageFix"/>
<feColorMatrix in="SourceAlpha" type="matrix" values="0 0 0 0 0 0 0 0 0 0 0 0 0 0 0 0 0 0 127 0" result="hardAlpha"/>
<feOffset dy="4"/>
<feGaussianBlur stdDeviation="2"/>
<feComposite in2="hardAlpha" operator="out"/>
<feColorMatrix type="matrix" values="0 0 0 0 0 0 0 0 0 0 0 0 0 0 0 0 0 0 0.25 0"/>
<feBlend mode="normal" in2="BackgroundImageFix" result="effect1_dropShadow_143_169"/>
<feBlend mode="normal" in="SourceGraphic" in2="effect1_dropShadow_143_169" result="shape"/>
</filter>
</defs>
</svg>
